<svg xmlns="http://www.w3.org/2000/svg" xmlns:xlink="http://www.w3.org/1999/xlink" width="500" zoomAndPan="magnify" viewBox="0 0 375 374.999991" height="500" preserveAspectRatio="xMidYMid meet" version="1.0"><path fill="#21153d" d="M 41.109375 73.871094 C 62.898438 32.890625 172.355469 30.84375 181.472656 83.523438 C 183.003906 104.089844 173.464844 127.292969 199.855469 141.679688 C 230.046875 158.136719 252.652344 132.894531 287.105469 154.078125 C 333.730469 182.746094 348.863281 253.800781 303.84375 270.71875 C 265.582031 285.09375 251.5 240.621094 223.101562 231.019531 C 198.441406 223.261719 176.335938 247.632812 143.121094 250.105469 C 95.722656 253.628906 43.953125 217.550781 60.976562 164.285156 C 70.320312 135.042969 25.222656 104.574219 41.109375 73.871094 " fill-opacity="1" fill-rule="nonzero"/><path fill="#6d65a9" d="M 67.058594 99.820312 C 88.84375 58.839844 198.304688 56.792969 207.421875 109.472656 C 208.953125 130.039062 199.414062 153.242188 225.800781 167.625 C 255.996094 184.085938 278.601562 158.839844 313.054688 180.027344 C 359.679688 208.695312 374.8125 279.75 329.792969 296.667969 C 291.53125 311.042969 277.445312 266.570312 249.050781 256.96875 C 224.390625 249.210938 202.285156 273.582031 169.070312 276.050781 C 121.671875 279.578125 69.902344 243.5 86.925781 190.234375 C 96.265625 160.992188 51.171875 130.523438 67.058594 99.820312 " fill-opacity="1" fill-rule="nonzero"/></svg>