<svg xmlns="http://www.w3.org/2000/svg" xmlns:xlink="http://www.w3.org/1999/xlink" width="500" zoomAndPan="magnify" viewBox="0 0 375 374.999991" height="500" preserveAspectRatio="xMidYMid meet" version="1.0"><defs><clipPath id="17fe75252d"><path d="M 21 42.496094 L 354 42.496094 L 354 364 L 21 364 Z M 21 42.496094 " clip-rule="nonzero"/></clipPath><clipPath id="43460f1c64"><path d="M 65.097656 95.285156 L 295.347656 95.285156 L 295.347656 325.535156 L 65.097656 325.535156 Z M 65.097656 95.285156 " clip-rule="nonzero"/></clipPath><clipPath id="8357d54236"><path d="M 16 2.265625 L 334.5 2.265625 L 334.5 200 L 16 200 Z M 16 2.265625 " clip-rule="nonzero"/></clipPath></defs><g clip-path="url(#17fe75252d)"><path fill="#545454" d="M 337.214844 97.332031 C 387.132812 159.835938 306.617188 200.667969 323.390625 250.707031 C 337.628906 293.207031 361.859375 372.472656 264.542969 362.488281 C 230.058594 358.953125 201.859375 352.238281 184.460938 354.109375 C 152.769531 357.511719 139.988281 360.65625 108.894531 362.011719 C 19.828125 365.929688 2.382812 305.078125 41.183594 245.863281 C 62.105469 213.941406 50.292969 184.996094 38.519531 167.722656 C 19.796875 140.28125 13.511719 63.609375 113.507812 69.578125 C 192.433594 74.273438 182.789062 42.515625 232.523438 42.78125 C 264.03125 42.945312 305.792969 57.972656 337.214844 97.332031 Z M 337.214844 97.332031 " fill-opacity="1" fill-rule="nonzero"/></g><path fill="#a6a6a6" d="M 322.617188 82.734375 C 372.53125 145.238281 292.019531 186.070312 308.789062 236.109375 C 323.03125 278.609375 347.261719 357.875 249.945312 347.890625 C 215.460938 344.351562 187.261719 337.640625 169.859375 339.507812 C 138.171875 342.914062 125.386719 346.054688 94.292969 347.410156 C 5.230469 351.328125 -12.21875 290.476562 26.582031 231.265625 C 47.503906 199.34375 35.695312 170.398438 23.917969 153.121094 C 5.199219 125.679688 -1.085938 49.011719 98.90625 54.980469 C 177.832031 59.671875 168.191406 27.917969 217.921875 28.183594 C 249.429688 28.347656 291.191406 43.375 322.617188 82.734375 Z M 322.617188 82.734375 " fill-opacity="1" fill-rule="nonzero"/><path fill="#545454" d="M 130.28125 236.371094 C 131.128906 236.371094 131.976562 236.328125 132.824219 236.246094 C 133.671875 236.160156 134.511719 236.035156 135.34375 235.871094 C 136.175781 235.703125 137 235.5 137.816406 235.25 C 138.628906 235.003906 139.429688 234.71875 140.214844 234.394531 C 141 234.066406 141.765625 233.707031 142.515625 233.304688 C 143.265625 232.902344 143.996094 232.46875 144.703125 231.996094 C 145.410156 231.523438 146.089844 231.015625 146.746094 230.476562 C 147.40625 229.9375 148.035156 229.367188 148.636719 228.765625 C 149.238281 228.164062 149.808594 227.535156 150.347656 226.878906 C 150.886719 226.222656 151.390625 225.539062 151.863281 224.832031 C 152.335938 224.125 152.773438 223.398438 153.171875 222.648438 C 153.574219 221.898438 153.9375 221.128906 154.261719 220.34375 C 154.589844 219.558594 154.875 218.757812 155.121094 217.945312 C 155.367188 217.132812 155.574219 216.308594 155.742188 215.472656 C 155.90625 214.640625 156.03125 213.800781 156.113281 212.953125 C 156.199219 212.109375 156.238281 211.261719 156.238281 210.410156 C 156.238281 209.558594 156.199219 208.710938 156.113281 207.867188 C 156.03125 207.019531 155.90625 206.179688 155.742188 205.34375 C 155.574219 204.511719 155.367188 203.6875 155.121094 202.875 C 154.875 202.0625 154.589844 201.261719 154.261719 200.476562 C 153.9375 199.691406 153.574219 198.921875 153.175781 198.171875 C 152.773438 197.421875 152.335938 196.695312 151.863281 195.988281 C 151.390625 195.28125 150.886719 194.597656 150.347656 193.941406 C 149.808594 193.285156 149.238281 192.65625 148.636719 192.054688 C 148.035156 191.453125 147.40625 190.882812 146.75 190.34375 C 146.089844 189.804688 145.410156 189.296875 144.703125 188.824219 C 143.996094 188.351562 143.265625 187.917969 142.515625 187.515625 C 141.765625 187.113281 141 186.75 140.214844 186.425781 C 139.429688 186.101562 138.628906 185.816406 137.816406 185.566406 C 137 185.320312 136.179688 185.113281 135.34375 184.949219 C 134.511719 184.785156 133.671875 184.660156 132.824219 184.574219 C 131.976562 184.492188 131.128906 184.449219 130.28125 184.449219 C 129.429688 184.449219 128.582031 184.492188 127.734375 184.574219 C 126.890625 184.660156 126.050781 184.785156 125.214844 184.949219 C 124.382812 185.113281 123.558594 185.320312 122.742188 185.566406 C 121.929688 185.816406 121.128906 186.101562 120.34375 186.425781 C 119.558594 186.75 118.792969 187.113281 118.042969 187.515625 C 117.292969 187.917969 116.5625 188.351562 115.855469 188.824219 C 115.148438 189.296875 114.46875 189.804688 113.8125 190.34375 C 113.152344 190.882812 112.523438 191.453125 111.921875 192.054688 C 111.320312 192.65625 110.75 193.285156 110.210938 193.941406 C 109.671875 194.597656 109.167969 195.28125 108.695312 195.988281 C 108.222656 196.695312 107.785156 197.421875 107.386719 198.171875 C 106.984375 198.921875 106.621094 199.691406 106.296875 200.476562 C 105.96875 201.261719 105.683594 202.0625 105.4375 202.875 C 105.191406 203.6875 104.984375 204.511719 104.820312 205.34375 C 104.652344 206.179688 104.527344 207.019531 104.445312 207.867188 C 104.363281 208.710938 104.320312 209.558594 104.320312 210.410156 C 104.320312 211.261719 104.363281 212.109375 104.445312 212.953125 C 104.527344 213.800781 104.652344 214.640625 104.820312 215.476562 C 104.984375 216.308594 105.191406 217.132812 105.4375 217.945312 C 105.683594 218.757812 105.96875 219.558594 106.296875 220.34375 C 106.621094 221.128906 106.984375 221.898438 107.386719 222.648438 C 107.785156 223.398438 108.222656 224.125 108.695312 224.832031 C 109.167969 225.539062 109.671875 226.222656 110.210938 226.878906 C 110.75 227.535156 111.320312 228.164062 111.921875 228.765625 C 112.523438 229.367188 113.152344 229.9375 113.8125 230.476562 C 114.46875 231.015625 115.148438 231.523438 115.855469 231.996094 C 116.5625 232.46875 117.292969 232.902344 118.042969 233.304688 C 118.792969 233.707031 119.558594 234.066406 120.34375 234.394531 C 121.128906 234.71875 121.929688 235.003906 122.742188 235.25 C 123.558594 235.5 124.382812 235.703125 125.214844 235.871094 C 126.046875 236.035156 126.890625 236.160156 127.734375 236.246094 C 128.582031 236.328125 129.429688 236.371094 130.28125 236.371094 Z M 130.28125 236.371094 " fill-opacity="1" fill-rule="nonzero"/><path fill="#545454" d="M 230.167969 236.371094 C 231.015625 236.371094 231.867188 236.328125 232.710938 236.246094 C 233.558594 236.160156 234.398438 236.035156 235.230469 235.871094 C 236.066406 235.703125 236.890625 235.5 237.703125 235.25 C 238.515625 235.003906 239.316406 234.71875 240.101562 234.394531 C 240.886719 234.066406 241.65625 233.707031 242.40625 233.304688 C 243.15625 232.902344 243.882812 232.46875 244.589844 231.996094 C 245.296875 231.523438 245.980469 231.015625 246.636719 230.476562 C 247.292969 229.9375 247.921875 229.367188 248.523438 228.765625 C 249.125 228.164062 249.695312 227.535156 250.234375 226.878906 C 250.773438 226.222656 251.28125 225.539062 251.753906 224.832031 C 252.222656 224.125 252.660156 223.398438 253.0625 222.648438 C 253.460938 221.898438 253.824219 221.128906 254.152344 220.34375 C 254.476562 219.558594 254.761719 218.757812 255.007812 217.945312 C 255.257812 217.132812 255.460938 216.308594 255.628906 215.472656 C 255.792969 214.640625 255.917969 213.800781 256.003906 212.953125 C 256.085938 212.109375 256.128906 211.261719 256.128906 210.410156 C 256.128906 209.558594 256.085938 208.710938 256.003906 207.867188 C 255.917969 207.019531 255.792969 206.179688 255.628906 205.34375 C 255.460938 204.511719 255.257812 203.6875 255.007812 202.875 C 254.761719 202.0625 254.476562 201.261719 254.152344 200.476562 C 253.824219 199.691406 253.460938 198.921875 253.0625 198.171875 C 252.660156 197.421875 252.222656 196.695312 251.753906 195.988281 C 251.28125 195.28125 250.773438 194.597656 250.234375 193.941406 C 249.695312 193.285156 249.125 192.65625 248.523438 192.054688 C 247.921875 191.453125 247.292969 190.882812 246.636719 190.34375 C 245.980469 189.804688 245.296875 189.296875 244.589844 188.824219 C 243.882812 188.351562 243.15625 187.917969 242.40625 187.515625 C 241.65625 187.113281 240.886719 186.75 240.101562 186.425781 C 239.316406 186.101562 238.515625 185.816406 237.703125 185.566406 C 236.890625 185.320312 236.066406 185.113281 235.230469 184.949219 C 234.398438 184.785156 233.558594 184.660156 232.710938 184.574219 C 231.867188 184.492188 231.019531 184.449219 230.167969 184.449219 C 229.316406 184.449219 228.46875 184.492188 227.621094 184.574219 C 226.777344 184.660156 225.9375 184.785156 225.101562 184.949219 C 224.269531 185.113281 223.445312 185.320312 222.632812 185.566406 C 221.816406 185.816406 221.019531 186.101562 220.234375 186.425781 C 219.449219 186.75 218.679688 187.113281 217.929688 187.515625 C 217.179688 187.917969 216.453125 188.351562 215.746094 188.824219 C 215.039062 189.296875 214.355469 189.804688 213.699219 190.34375 C 213.042969 190.882812 212.414062 191.453125 211.8125 192.054688 C 211.210938 192.65625 210.640625 193.285156 210.101562 193.941406 C 209.5625 194.597656 209.054688 195.28125 208.582031 195.988281 C 208.109375 196.695312 207.675781 197.421875 207.273438 198.171875 C 206.871094 198.921875 206.507812 199.691406 206.183594 200.476562 C 205.859375 201.261719 205.574219 202.0625 205.324219 202.875 C 205.078125 203.6875 204.871094 204.511719 204.707031 205.34375 C 204.539062 206.179688 204.417969 207.019531 204.332031 207.867188 C 204.25 208.710938 204.207031 209.558594 204.207031 210.410156 C 204.207031 211.261719 204.25 212.109375 204.332031 212.953125 C 204.417969 213.800781 204.539062 214.640625 204.707031 215.476562 C 204.871094 216.308594 205.078125 217.132812 205.324219 217.945312 C 205.574219 218.757812 205.859375 219.558594 206.183594 220.34375 C 206.507812 221.128906 206.871094 221.898438 207.273438 222.648438 C 207.675781 223.398438 208.109375 224.125 208.582031 224.832031 C 209.054688 225.539062 209.5625 226.222656 210.101562 226.878906 C 210.640625 227.535156 211.210938 228.164062 211.8125 228.765625 C 212.414062 229.367188 213.042969 229.9375 213.699219 230.476562 C 214.355469 231.015625 215.039062 231.523438 215.746094 231.996094 C 216.453125 232.46875 217.179688 232.902344 217.929688 233.304688 C 218.679688 233.707031 219.449219 234.066406 220.234375 234.394531 C 221.019531 234.71875 221.816406 235.003906 222.632812 235.25 C 223.445312 235.5 224.269531 235.703125 225.101562 235.871094 C 225.9375 236.035156 226.777344 236.160156 227.621094 236.246094 C 228.46875 236.328125 229.316406 236.371094 230.167969 236.371094 Z M 230.167969 236.371094 " fill-opacity="1" fill-rule="nonzero"/><path fill="#545454" d="M 178.113281 290.496094 C 178.222656 290.675781 178.355469 290.839844 178.507812 290.984375 C 178.660156 291.132812 178.828125 291.257812 179.015625 291.359375 C 179.199219 291.460938 179.394531 291.542969 179.597656 291.59375 C 179.804688 291.648438 180.011719 291.675781 180.222656 291.675781 C 180.433594 291.675781 180.644531 291.648438 180.847656 291.59375 C 181.054688 291.542969 181.246094 291.460938 181.433594 291.359375 C 181.617188 291.257812 181.785156 291.132812 181.9375 290.984375 C 182.09375 290.839844 182.222656 290.675781 182.335938 290.496094 L 202.035156 258.453125 C 202.253906 258.097656 202.4375 257.722656 202.585938 257.332031 C 202.734375 256.941406 202.84375 256.539062 202.917969 256.128906 C 202.992188 255.71875 203.023438 255.304688 203.019531 254.886719 C 203.011719 254.46875 202.96875 254.054688 202.886719 253.644531 C 202.800781 253.234375 202.683594 252.835938 202.523438 252.453125 C 202.363281 252.066406 202.171875 251.695312 201.945312 251.347656 C 201.714844 250.996094 201.457031 250.671875 201.167969 250.367188 C 200.878906 250.066406 200.5625 249.796875 200.222656 249.554688 L 184.074219 238.074219 C 183.511719 237.675781 182.902344 237.371094 182.246094 237.160156 C 181.585938 236.949219 180.914062 236.84375 180.222656 236.84375 C 179.535156 236.84375 178.859375 236.949219 178.203125 237.160156 C 177.542969 237.371094 176.933594 237.675781 176.371094 238.074219 L 160.222656 249.554688 C 159.882812 249.796875 159.566406 250.066406 159.277344 250.367188 C 158.988281 250.671875 158.730469 250.996094 158.503906 251.347656 C 158.273438 251.695312 158.082031 252.066406 157.921875 252.453125 C 157.765625 252.839844 157.644531 253.234375 157.5625 253.644531 C 157.476562 254.054688 157.433594 254.46875 157.429688 254.886719 C 157.421875 255.304688 157.457031 255.71875 157.527344 256.128906 C 157.601562 256.542969 157.710938 256.941406 157.859375 257.332031 C 158.007812 257.722656 158.191406 258.097656 158.410156 258.453125 Z M 178.113281 290.496094 " fill-opacity="1" fill-rule="nonzero"/><g clip-path="url(#43460f1c64)"><path fill="#545454" d="M 78.640625 264.472656 C 79.859375 266.761719 81.152344 269.011719 82.523438 271.214844 C 83.890625 273.417969 85.335938 275.574219 86.851562 277.679688 C 88.367188 279.789062 89.949219 281.839844 91.605469 283.839844 C 93.257812 285.839844 94.980469 287.78125 96.765625 289.664062 C 98.550781 291.546875 100.398438 293.367188 102.308594 295.125 C 104.214844 296.882812 106.183594 298.574219 108.207031 300.199219 C 110.230469 301.824219 112.304688 303.378906 114.433594 304.863281 C 116.5625 306.347656 118.738281 307.757812 120.960938 309.09375 C 123.1875 310.429688 125.453125 311.691406 127.761719 312.875 C 130.070312 314.058594 132.417969 315.164062 134.804688 316.1875 C 137.1875 317.210938 139.601562 318.15625 142.050781 319.015625 C 144.5 319.878906 146.972656 320.65625 149.472656 321.347656 C 151.972656 322.042969 154.496094 322.648438 157.039062 323.171875 C 159.578125 323.695312 162.136719 324.132812 164.707031 324.484375 C 167.277344 324.832031 169.859375 325.097656 172.445312 325.269531 C 175.035156 325.445312 177.628906 325.535156 180.222656 325.535156 C 182.816406 325.535156 185.410156 325.445312 188 325.269531 C 190.589844 325.097656 193.167969 324.832031 195.738281 324.484375 C 198.3125 324.132812 200.867188 323.695312 203.410156 323.171875 C 205.949219 322.648438 208.472656 322.042969 210.972656 321.347656 C 213.472656 320.65625 215.949219 319.878906 218.394531 319.015625 C 220.84375 318.15625 223.257812 317.210938 225.644531 316.1875 C 228.027344 315.164062 230.375 314.058594 232.683594 312.875 C 234.992188 311.691406 237.261719 310.429688 239.484375 309.09375 C 241.707031 307.757812 243.882812 306.347656 246.011719 304.863281 C 248.140625 303.378906 250.21875 301.824219 252.242188 300.199219 C 254.265625 298.574219 256.230469 296.882812 258.140625 295.125 C 260.046875 293.367188 261.894531 291.546875 263.679688 289.664062 C 265.46875 287.78125 267.1875 285.839844 268.839844 283.839844 C 270.496094 281.839844 272.082031 279.789062 273.597656 277.679688 C 275.113281 275.574219 276.554688 273.417969 277.921875 271.214844 C 279.292969 269.011719 280.585938 266.761719 281.804688 264.472656 L 281.804688 318.761719 L 295.347656 318.761719 L 295.347656 210.410156 C 295.351562 205.558594 295.046875 200.730469 294.433594 195.917969 C 293.824219 191.105469 292.910156 186.355469 291.695312 181.660156 C 290.476562 176.964844 288.96875 172.363281 287.167969 167.863281 C 285.367188 163.359375 283.285156 158.988281 280.929688 154.75 C 280.894531 154.683594 280.894531 154.609375 280.859375 154.542969 C 279.363281 151.859375 277.746094 149.273438 276.058594 146.746094 C 275.652344 146.132812 275.21875 145.539062 274.800781 144.9375 C 273.203125 142.632812 271.53125 140.398438 269.785156 138.234375 C 269.375 137.730469 268.984375 137.214844 268.566406 136.714844 C 266.40625 134.132812 264.15625 131.640625 261.796875 129.269531 C 261.515625 128.984375 261.21875 128.726562 260.933594 128.445312 C 258.832031 126.375 256.65625 124.398438 254.402344 122.507812 C 253.800781 121.996094 253.199219 121.488281 252.585938 120.988281 C 250.054688 118.941406 247.46875 116.972656 244.78125 115.148438 C 244.363281 114.863281 243.921875 114.613281 243.496094 114.335938 C 241.226562 112.839844 238.90625 111.425781 236.53125 110.101562 C 235.558594 109.550781 234.578125 109.015625 233.585938 108.492188 C 231.246094 107.265625 228.863281 106.117188 226.441406 105.046875 C 225.40625 104.589844 224.359375 104.15625 223.308594 103.726562 C 220.949219 102.773438 218.558594 101.898438 216.140625 101.101562 C 214.984375 100.71875 213.820312 100.359375 212.652344 100.015625 C 210.058594 99.25 207.433594 98.574219 204.777344 97.984375 C 204.019531 97.820312 203.261719 97.640625 202.496094 97.492188 C 199.496094 96.898438 196.457031 96.453125 193.398438 96.097656 C 192.453125 95.988281 191.503906 95.894531 190.554688 95.808594 C 187.136719 95.5 183.695312 95.285156 180.222656 95.285156 C 176.75 95.285156 173.3125 95.5 169.890625 95.808594 C 168.9375 95.894531 167.992188 95.992188 167.050781 96.097656 C 163.988281 96.453125 160.949219 96.898438 157.949219 97.492188 C 157.183594 97.640625 156.429688 97.820312 155.667969 97.984375 C 153.011719 98.566406 150.386719 99.242188 147.792969 100.015625 C 146.621094 100.359375 145.460938 100.722656 144.308594 101.101562 C 141.886719 101.898438 139.496094 102.773438 137.140625 103.726562 C 136.085938 104.15625 135.042969 104.589844 134.003906 105.046875 C 131.582031 106.109375 129.199219 107.261719 126.859375 108.492188 C 125.867188 109.015625 124.886719 109.550781 123.914062 110.101562 C 121.542969 111.433594 119.222656 112.84375 116.949219 114.335938 C 116.527344 114.613281 116.082031 114.863281 115.664062 115.148438 C 112.976562 116.972656 110.390625 118.941406 107.859375 120.988281 C 107.246094 121.488281 106.648438 121.996094 106.042969 122.507812 C 103.796875 124.402344 101.621094 126.382812 99.511719 128.445312 C 99.226562 128.726562 98.929688 128.984375 98.648438 129.269531 C 96.289062 131.640625 94.039062 134.132812 91.878906 136.714844 C 91.464844 137.214844 91.070312 137.730469 90.660156 138.234375 C 88.914062 140.398438 87.242188 142.632812 85.648438 144.9375 C 85.226562 145.539062 84.792969 146.132812 84.386719 146.746094 C 82.703125 149.277344 81.082031 151.859375 79.589844 154.542969 C 79.550781 154.609375 79.550781 154.683594 79.519531 154.75 C 77.160156 158.988281 75.082031 163.359375 73.28125 167.863281 C 71.476562 172.363281 69.96875 176.964844 68.753906 181.660156 C 67.535156 186.355469 66.621094 191.105469 66.011719 195.917969 C 65.398438 200.730469 65.09375 205.558594 65.097656 210.410156 L 65.097656 318.761719 L 78.640625 318.761719 Z M 108.144531 138.925781 C 109.476562 137.582031 110.90625 136.351562 112.308594 135.089844 C 113.34375 134.152344 114.328125 133.164062 115.402344 132.273438 C 117.511719 130.523438 119.71875 128.902344 121.957031 127.332031 C 122.386719 127.027344 122.785156 126.683594 123.21875 126.386719 C 125.304688 124.964844 127.441406 123.625 129.628906 122.367188 C 131.816406 121.105469 134.046875 119.929688 136.320312 118.835938 C 138.59375 117.742188 140.90625 116.734375 143.257812 115.8125 C 145.605469 114.894531 147.988281 114.0625 150.398438 113.316406 C 152.8125 112.574219 155.246094 111.921875 157.707031 111.363281 C 160.167969 110.800781 162.648438 110.332031 165.144531 109.957031 C 167.636719 109.582031 170.144531 109.300781 172.660156 109.113281 C 175.179688 108.921875 177.699219 108.828125 180.222656 108.828125 C 182.746094 108.828125 185.265625 108.921875 187.78125 109.113281 C 190.300781 109.300781 192.804688 109.582031 195.300781 109.957031 C 197.796875 110.332031 200.273438 110.800781 202.734375 111.363281 C 205.195312 111.921875 207.632812 112.574219 210.042969 113.316406 C 212.457031 114.058594 214.835938 114.890625 217.1875 115.8125 C 219.535156 116.734375 221.847656 117.742188 224.125 118.832031 C 226.398438 119.925781 228.628906 121.105469 230.816406 122.363281 C 233 123.625 235.136719 124.964844 237.226562 126.382812 C 237.675781 126.691406 238.085938 127.050781 238.535156 127.363281 C 240.757812 128.925781 242.945312 130.535156 245.042969 132.273438 C 246.117188 133.164062 247.105469 134.152344 248.140625 135.089844 C 249.539062 136.351562 250.96875 137.582031 252.300781 138.925781 C 252.40625 139.035156 252.5 139.15625 252.609375 139.261719 C 247.738281 138.207031 242.8125 137.765625 237.832031 137.9375 C 218.347656 138.640625 199 148.59375 180.222656 167.550781 C 161.449219 148.59375 142.097656 138.644531 122.613281 137.9375 C 121.886719 137.910156 121.167969 137.898438 120.453125 137.898438 C 116.199219 137.898438 111.996094 138.355469 107.839844 139.261719 C 107.945312 139.152344 108.039062 139.035156 108.144531 138.925781 Z M 90.871094 162.132812 C 93.054688 160.347656 95.378906 158.773438 97.839844 157.402344 C 100.304688 156.035156 102.871094 154.898438 105.539062 153.988281 C 108.207031 153.078125 110.933594 152.414062 113.71875 151.992188 C 116.503906 151.570312 119.308594 151.398438 122.125 151.476562 C 139.5625 152.105469 157.421875 162.355469 175.210938 181.949219 C 175.527344 182.300781 175.878906 182.613281 176.261719 182.886719 C 176.644531 183.164062 177.050781 183.398438 177.480469 183.589844 C 177.914062 183.78125 178.359375 183.925781 178.820312 184.023438 C 179.285156 184.121094 179.75 184.167969 180.222656 184.167969 C 180.695312 184.167969 181.160156 184.121094 181.625 184.023438 C 182.085938 183.925781 182.53125 183.78125 182.964844 183.589844 C 183.394531 183.398438 183.804688 183.164062 184.1875 182.886719 C 184.566406 182.613281 184.917969 182.300781 185.234375 181.949219 C 203.027344 162.355469 220.882812 152.105469 238.320312 151.476562 C 241.140625 151.378906 243.941406 151.539062 246.730469 151.953125 C 249.519531 152.367188 252.25 153.027344 254.917969 153.9375 C 257.585938 154.84375 260.152344 155.988281 262.613281 157.363281 C 265.078125 158.738281 267.394531 160.320312 269.566406 162.117188 C 270.609375 164.042969 271.585938 165.996094 272.5 167.984375 C 273.414062 169.972656 274.265625 171.984375 275.050781 174.027344 C 275.835938 176.070312 276.550781 178.136719 277.203125 180.222656 C 277.855469 182.3125 278.4375 184.417969 278.953125 186.546875 C 279.464844 188.671875 279.914062 190.8125 280.289062 192.96875 C 280.664062 195.121094 280.972656 197.285156 281.207031 199.460938 C 281.445312 201.636719 281.613281 203.816406 281.707031 206 C 281.804688 208.1875 281.828125 210.375 281.78125 212.5625 C 281.738281 214.746094 281.621094 216.929688 281.433594 219.109375 C 281.25 221.289062 280.992188 223.460938 280.664062 225.625 C 280.339844 227.789062 279.941406 229.9375 279.476562 232.074219 C 279.011719 234.210938 278.476562 236.332031 277.875 238.4375 C 277.273438 240.539062 276.601562 242.621094 275.863281 244.679688 C 275.128906 246.738281 274.324219 248.773438 273.457031 250.78125 C 272.589844 252.789062 271.65625 254.765625 270.660156 256.714844 C 269.664062 258.660156 268.605469 260.574219 267.484375 262.453125 C 266.367188 264.332031 265.1875 266.171875 263.949219 267.976562 C 262.710938 269.78125 261.414062 271.539062 260.0625 273.261719 C 258.707031 274.980469 257.300781 276.652344 255.839844 278.28125 C 254.378906 279.910156 252.867188 281.488281 251.304688 283.019531 C 249.742188 284.550781 248.132812 286.03125 246.472656 287.457031 C 244.816406 288.882812 243.113281 290.253906 241.367188 291.570312 C 239.621094 292.886719 237.832031 294.148438 236.003906 295.347656 C 234.175781 296.550781 232.3125 297.691406 230.410156 298.773438 C 228.507812 299.851562 226.570312 300.871094 224.605469 301.828125 C 222.636719 302.78125 220.640625 303.671875 218.613281 304.5 C 216.589844 305.328125 214.539062 306.085938 212.464844 306.78125 C 210.390625 307.476562 208.296875 308.101562 206.179688 308.660156 C 204.066406 309.222656 201.9375 309.710938 199.789062 310.132812 C 197.640625 310.554688 195.484375 310.90625 193.316406 311.1875 C 191.144531 311.46875 188.96875 311.679688 186.785156 311.820312 C 184.605469 311.964844 182.417969 312.035156 180.230469 312.035156 C 178.042969 312.035156 175.859375 311.964844 173.675781 311.824219 C 171.492188 311.683594 169.316406 311.472656 167.148438 311.1875 C 164.976562 310.90625 162.820312 310.554688 160.671875 310.136719 C 158.527344 309.714844 156.394531 309.222656 154.28125 308.664062 C 152.164062 308.105469 150.070312 307.480469 147.996094 306.785156 C 145.921875 306.09375 143.871094 305.332031 141.847656 304.507812 C 139.820312 303.679688 137.824219 302.789062 135.855469 301.832031 C 133.886719 300.878906 131.953125 299.859375 130.050781 298.777344 C 128.148438 297.699219 126.285156 296.558594 124.457031 295.355469 C 122.628906 294.15625 120.839844 292.898438 119.09375 291.582031 C 117.34375 290.265625 115.640625 288.894531 113.984375 287.464844 C 112.324219 286.039062 110.714844 284.5625 109.152344 283.03125 C 107.589844 281.5 106.078125 279.921875 104.617188 278.292969 C 103.15625 276.664062 101.75 274.992188 100.394531 273.273438 C 99.042969 271.554688 97.746094 269.792969 96.507812 267.988281 C 95.269531 266.1875 94.089844 264.347656 92.96875 262.464844 C 91.847656 260.585938 90.789062 258.675781 89.792969 256.726562 C 88.796875 254.78125 87.863281 252.800781 86.996094 250.792969 C 86.128906 248.785156 85.324219 246.753906 84.585938 244.695312 C 83.847656 242.632812 83.179688 240.554688 82.578125 238.449219 C 81.972656 236.347656 81.4375 234.226562 80.972656 232.089844 C 80.507812 229.953125 80.109375 227.800781 79.785156 225.640625 C 79.457031 223.476562 79.199219 221.304688 79.011719 219.125 C 78.824219 216.945312 78.710938 214.761719 78.664062 212.574219 C 78.617188 210.390625 78.644531 208.203125 78.738281 206.015625 C 78.835938 203.832031 79 201.652344 79.238281 199.476562 C 79.472656 197.300781 79.78125 195.136719 80.15625 192.984375 C 80.53125 190.828125 80.976562 188.6875 81.492188 186.5625 C 82.007812 184.433594 82.589844 182.328125 83.238281 180.238281 C 83.890625 178.148438 84.609375 176.085938 85.390625 174.042969 C 86.175781 172 87.023438 169.984375 87.9375 168 C 88.851562 166.011719 89.832031 164.054688 90.871094 162.132812 Z M 90.871094 162.132812 " fill-opacity="1" fill-rule="nonzero"/></g><g clip-path="url(#8357d54236)"><path fill="#545454" d="M 254.996094 31.128906 L 177.429688 2.609375 L 176.523438 2.28125 L 175.613281 2.609375 L 98.042969 31.128906 L 18.671875 60.308594 L 35.332031 66.433594 L 54.5625 73.503906 C 50.390625 81.480469 46.523438 96.535156 51.75 122.941406 C 47.75 124.542969 44.917969 128.449219 44.917969 133.019531 C 44.917969 136.292969 46.367188 139.214844 48.65625 141.210938 C 46.28125 169.742188 26.976562 173.710938 20.660156 174.242188 C 18.679688 174.410156 16.886719 175.730469 16.40625 177.664062 C 14.367188 185.921875 36.796875 194.273438 50.113281 198.449219 C 55.996094 200.292969 62.386719 197.566406 65.039062 192 C 75.382812 170.300781 68.25 149.554688 63.878906 140.277344 C 65.605469 138.355469 66.664062 135.816406 66.664062 133.023438 C 66.664062 128.207031 63.527344 124.136719 59.1875 122.707031 C 57.890625 112.222656 56.09375 89.007812 63.628906 76.839844 L 84.976562 84.691406 C 88.546875 72.445312 109.640625 68.082031 117 66.566406 C 133.152344 63.234375 154.773438 61.394531 177.886719 61.394531 C 200.890625 61.394531 222.394531 63.21875 238.433594 66.53125 C 245.613281 68.015625 265.984375 72.226562 270.058594 83.953125 L 317.710938 66.4375 L 334.375 60.3125 Z M 254.996094 31.128906 " fill-opacity="1" fill-rule="nonzero"/></g><path fill="#545454" d="M 91.332031 88.355469 L 91.332031 138.636719 C 116.078125 122.300781 145.738281 112.785156 177.621094 112.785156 C 209.503906 112.785156 239.164062 122.300781 263.914062 138.636719 L 263.914062 88.246094 C 263.902344 61.515625 91.320312 61.625 91.332031 88.355469 Z M 91.332031 88.355469 " fill-opacity="1" fill-rule="nonzero"/></svg>