<svg xmlns="http://www.w3.org/2000/svg" xmlns:xlink="http://www.w3.org/1999/xlink" width="500" zoomAndPan="magnify" viewBox="0 0 375 149.999998" height="200" preserveAspectRatio="xMidYMid meet" version="1.0"><defs><clipPath id="669ae3920f"><path d="M 68 41 L 307 41 L 307 109.890625 L 68 109.890625 Z M 68 41 " clip-rule="nonzero"/></clipPath></defs><g clip-path="url(#669ae3920f)"><path fill="#fff05e" d="M 76.441406 44.941406 C 76.652344 45.546875 98.554688 49.933594 99.019531 50.628906 C 99.183594 50.871094 95.359375 51.816406 95.195312 51.859375 C 93.242188 52.328125 83.953125 53.300781 83.132812 55.355469 C 82.949219 55.820312 85.769531 56.070312 85.980469 56.097656 C 88.1875 56.375 94.308594 55.792969 95.953125 57.289062 C 96.042969 57.371094 87.703125 58.621094 87.289062 59.070312 C 87.15625 59.214844 89.640625 59.703125 89.808594 59.730469 C 90.949219 59.941406 93.679688 60.074219 94.453125 61.121094 C 95.015625 61.882812 87.90625 63.164062 87.347656 63.757812 C 86.953125 64.175781 91.378906 64.691406 91.074219 65.203125 C 90.023438 66.992188 83.613281 66.875 81.746094 67.488281 C 79.210938 68.324219 83.527344 68.566406 82.917969 69.460938 C 82.109375 70.65625 78.949219 70.863281 77.726562 71.101562 C 75.75 71.492188 73.765625 71.824219 71.792969 72.234375 C 71.621094 72.273438 67.820312 73.242188 68.066406 73.425781 C 70.902344 75.585938 78.539062 75.121094 82.019531 75.695312 C 87.117188 76.53125 88.632812 79.621094 94.082031 80.480469 C 94.917969 80.613281 103.285156 81.15625 103.214844 82.082031 C 103.164062 82.796875 100.539062 83.066406 100.171875 83.136719 C 98.703125 83.421875 88.523438 83.871094 87.992188 85.109375 C 87.789062 85.585938 89.019531 85.246094 89.535156 85.285156 C 90.109375 85.332031 96.65625 85.890625 96.285156 86.398438 C 94.265625 89.171875 84.015625 89.359375 80.828125 89.9375 C 80.09375 90.070312 76.726562 90.199219 76.300781 91.050781 C 76.15625 91.34375 79.863281 91.410156 79.582031 92.398438 C 78.925781 94.695312 73.203125 95.722656 71.382812 96.460938 C 71.300781 96.496094 68.96875 97.375 69.21875 97.769531 C 69.574219 98.335938 72.015625 97.972656 72.457031 97.945312 C 76.484375 97.714844 80.519531 97.390625 84.539062 97.027344 C 84.773438 97.007812 89.105469 96.53125 89.105469 96.832031 C 89.105469 97.226562 85.933594 97.722656 85.648438 97.789062 C 84.269531 98.125 75.8125 99.390625 75.40625 100.78125 C 75.347656 100.972656 85.621094 101.414062 86.195312 102.695312 C 86.808594 104.046875 76.609375 106.753906 75.539062 107.050781 C 75.394531 107.089844 71.523438 108.140625 71.636719 108.320312 C 72.609375 109.875 82.539062 108.488281 83.972656 108.417969 C 97.71875 107.734375 111.398438 106.117188 125.132812 105.234375 C 168.085938 102.464844 211.03125 101.5 254.039062 100.09375 C 266.652344 99.683594 279.257812 99.117188 291.863281 98.570312 C 295.894531 98.398438 303.132812 99.484375 306.871094 97.613281 C 307.0625 97.519531 304.078125 96.804688 303.902344 96.773438 C 302.34375 96.492188 300.785156 96.214844 299.21875 95.972656 C 294.769531 95.292969 290.300781 94.714844 285.851562 94 C 284.652344 93.808594 281.121094 93.851562 280.210938 92.808594 C 280.101562 92.679688 289.171875 91.320312 289.617188 90.621094 C 293.503906 84.566406 284.757812 89.578125 282.398438 85.328125 C 281.863281 84.363281 286.859375 82.878906 287.394531 82.628906 C 288.394531 82.164062 290.785156 76.71875 290.144531 76.027344 C 288.890625 74.664062 284.492188 74.871094 282.945312 74.734375 C 276.984375 74.214844 271.019531 73.765625 265.066406 73.175781 C 264.070312 73.074219 257.742188 73.105469 257.261719 71.707031 C 256.941406 70.78125 264.878906 70.257812 265.300781 70.222656 C 271.742188 69.734375 282.46875 71.207031 288.390625 68.347656 C 288.722656 68.1875 286.636719 67.753906 286.574219 67.742188 C 285.699219 67.570312 281.703125 67.324219 282.144531 65.75 C 282.617188 64.070312 285.230469 63.820312 286.183594 62.429688 C 287.433594 60.601562 285.589844 58.410156 286.574219 56.371094 C 287.261719 54.945312 289.835938 54.058594 290.125 52.640625 C 290.394531 51.339844 286.464844 51.40625 287.199219 50.199219 C 287.976562 48.917969 294.140625 47.863281 293.636719 46.074219 C 293.070312 44.054688 283.972656 44.101562 282.417969 44.003906 C 269.628906 43.21875 256.792969 42.792969 243.988281 42.304688 C 188.949219 40.203125 131.488281 42.644531 76.441406 44.941406 Z M 76.441406 44.941406 " fill-opacity="1" fill-rule="evenodd"/></g></svg>